<?xml version="1.0" encoding="UTF-8"?>
<svg id="Layer_1" xmlns="http://www.w3.org/2000/svg" version="1.1" viewBox="0 0 348.9 114.5">
  <!-- Generator: Adobe Illustrator 29.5.1, SVG Export Plug-In . SVG Version: 2.1.0 Build 141)  -->
  <defs>
    <style>
      .st0 {
        fill: #fff;
      }
    </style>
  </defs>
  <g>
    <path class="st0" d="M9.8,91v13h6v2.8H7.1v-15.8h2.8Z"/>
    <path class="st0" d="M28.8,101.8h-9.3c.6,1.5,1.7,2.2,3.2,2.2s1.7-.3,2.4-1l2,2c-1.2,1.2-2.6,1.8-4.3,1.8s-3.2-.6-4.4-1.8c-1.2-1.2-1.8-2.6-1.8-4.3s.6-3.1,1.8-4.3c1.2-1.2,2.7-1.8,4.4-1.8s3.2.6,4.4,1.8c1.2,1.2,1.8,2.6,1.8,4.3v1.2ZM25.8,99.4c-.7-1.4-1.7-2.2-3.2-2.2s-2.5.7-3.2,2.2h6.4Z"/>
    <path class="st0" d="M42.2,94.3v12.4h-2.8v-1.7c-1.1,1.1-2.4,1.7-3.9,1.7s-2.9-.6-4-1.8c-1.1-1.2-1.7-2.6-1.7-4.3s.5-3.1,1.6-4.3c1.1-1.2,2.4-1.8,4-1.8,1.5,0,2.8.6,3.9,1.7v-1.8h2.8ZM36.1,103.9c.9,0,1.7-.3,2.3-1s1-1.4,1-2.4-.3-1.7-1-2.4c-.6-.6-1.4-1-2.3-1s-1.7.3-2.3,1-1,1.4-1,2.4.3,1.7,1,2.4c.7.7,1.4,1,2.3,1Z"/>
    <path class="st0" d="M56.2,91v15.8h-2.8v-1.7c-1.1,1.1-2.4,1.7-3.9,1.7s-2.9-.6-4-1.8c-1.1-1.2-1.7-2.6-1.7-4.3s.6-3.1,1.7-4.3c1.1-1.2,2.4-1.8,4-1.8s2.8.6,3.9,1.7v-5.2h2.8ZM50.2,103.9c.9,0,1.7-.3,2.3-1s1-1.4,1-2.4-.3-1.7-1-2.4c-.6-.6-1.4-1-2.3-1s-1.7.3-2.3,1c-.6.6-1,1.4-1,2.4s.3,1.7,1,2.4c.7.7,1.4,1,2.3,1Z"/>
    <path class="st0" d="M59.9,93.3c-.5,0-.8-.2-1.2-.5-.3-.3-.5-.7-.5-1.1s.2-.8.5-1.1c.3-.3.7-.5,1.2-.5s.9.2,1.2.5c.3.3.5.7.5,1.1s-.2.8-.5,1.1c-.3.3-.7.5-1.2.5ZM58.5,94.3h2.8v12.4h-2.8v-12.4Z"/>
    <path class="st0" d="M66.2,94.3v1.4c.5-.5,1-.9,1.8-1.1.7-.3,1.5-.3,2.4-.2,1.3.1,2.3.6,3.1,1.4.8.8,1.1,2,1.1,3.6v7.3h-2.8v-7.5c0-.4-.1-.8-.3-1.2-.2-.4-.5-.7-.9-1-.4-.3-1-.4-1.6-.4s-1.3.1-1.7.4c-.4.3-.7.6-.9,1-.2.4-.3.8-.3,1.2v7.5h-2.8v-12.4h2.8Z"/>
    <path class="st0" d="M88.6,94.4v11.3c0,1.7-.6,3.1-1.8,4.2-1.2,1.1-2.6,1.7-4.3,1.7s-3.7-.6-5.2-1.8l1.4-2.6c.5.5,1.2,1,2,1.3.8.3,1.6.4,2.4.3.8,0,1.4-.3,2-.8.5-.5.8-1.2.8-2.2v-.6c-1.1,1.1-2.4,1.7-3.9,1.7s-2.9-.6-4-1.8c-1.1-1.2-1.7-2.6-1.7-4.3s.6-3.1,1.7-4.3c1.1-1.2,2.4-1.8,4-1.8s2.8.6,3.9,1.7v-1.8h2.8ZM82.5,103.9c.9,0,1.7-.3,2.3-1s1-1.4,1-2.4-.3-1.7-1-2.4c-.6-.6-1.4-1-2.3-1s-1.7.3-2.3,1-1,1.4-1,2.4.3,1.7,1,2.4c.7.7,1.4,1,2.3,1Z"/>
    <path class="st0" d="M103.1,97.1h-2.3v5c0,.5.2.9.6,1.2.3.3.8.5,1.3.5h.5v2.9h-.6c-1.2,0-2.3-.4-3.2-1.3s-1.3-2-1.3-3.2v-5.1h-.9v-2.8h.9v-3.4h2.8v3.4h2.3v2.8Z"/>
    <path class="st0" d="M107.6,91v4.8c.5-.5,1.1-.8,1.8-1.1.7-.3,1.5-.4,2.4-.3,1.3.1,2.3.6,3.1,1.4.8.8,1.1,2,1.1,3.6v7.3h-2.8v-7.5c0-.4-.1-.8-.3-1.2-.2-.4-.5-.7-.9-1-.4-.3-1-.4-1.6-.4s-1.3.1-1.7.4c-.4.3-.7.6-.9,1-.2.4-.3.8-.3,1.2v7.5h-2.8v-15.8h2.8Z"/>
    <path class="st0" d="M130.1,101.8h-9.3c.6,1.5,1.7,2.2,3.2,2.2s1.7-.3,2.4-1l2,2c-1.2,1.2-2.6,1.8-4.3,1.8s-3.2-.6-4.4-1.8c-1.2-1.2-1.8-2.6-1.8-4.3s.6-3.1,1.8-4.3c1.2-1.2,2.7-1.8,4.4-1.8s3.2.6,4.4,1.8c1.2,1.2,1.8,2.6,1.8,4.3v1.2ZM127.1,99.4c-.7-1.4-1.7-2.2-3.2-2.2s-2.5.7-3.2,2.2h6.4Z"/>
    <path class="st0" d="M143.5,93.7c-.5,0-.9.2-1.3.5s-.6.8-.6,1.3v.7h2.3v2.8h-2.3v7.7h-2.8v-7.7h-.9v-2.8h.9v-.8c0-1.2.4-2.3,1.3-3.2.9-.9,2-1.3,3.2-1.3h1.3v2.8h-1.2Z"/>
    <path class="st0" d="M154,106.7v-1.4c-1.1,1.1-2.5,1.5-4.2,1.4-1.3-.2-2.4-.7-3.1-1.5-.8-.8-1.2-2-1.2-3.6v-7.3h2.8v7.4c0,.4.1.8.3,1.2.2.4.5.8.9,1,.4.3.9.4,1.5.4s1.3-.1,1.7-.4c.4-.2.7-.6.9-1,.2-.4.3-.8.3-1.2v-7.4h2.8v12.4h-2.8Z"/>
    <path class="st0" d="M164.3,97.1h-2.3v5c0,.5.2.9.6,1.2.3.3.8.5,1.3.5h.5v2.9h-.6c-1.2,0-2.3-.4-3.2-1.3-.9-.9-1.3-2-1.3-3.2v-5.1h-.9v-2.8h.9v-3.4h2.8v3.4h2.3v2.8Z"/>
    <path class="st0" d="M174.6,106.7v-1.4c-1.1,1.1-2.5,1.5-4.2,1.4-1.3-.2-2.4-.7-3.1-1.5-.8-.8-1.2-2-1.2-3.6v-7.3h2.8v7.4c0,.4.1.8.3,1.2.2.4.5.8.9,1,.4.3.9.4,1.5.4s1.3-.1,1.7-.4c.4-.2.7-.6.9-1,.2-.4.3-.8.3-1.2v-7.4h2.8v12.4h-2.8Z"/>
    <path class="st0" d="M187.5,94.4v2.8c-1.9-.2-3.2,0-4,.7-.8.7-1.2,1.6-1.2,2.7v6.2h-2.8v-12.4h2.8v2.4c.7-1.5,1.8-2.3,3.3-2.4h1.9Z"/>
    <path class="st0" d="M200.4,101.8h-9.3c.6,1.5,1.7,2.2,3.2,2.2s1.7-.3,2.4-1l2,2c-1.2,1.2-2.6,1.8-4.3,1.8s-3.2-.6-4.4-1.8c-1.2-1.2-1.8-2.6-1.8-4.3s.6-3.1,1.8-4.3,2.7-1.8,4.4-1.8,3.2.6,4.4,1.8c1.2,1.2,1.8,2.6,1.8,4.3v1.2ZM197.4,99.4c-.7-1.4-1.7-2.2-3.2-2.2s-2.5.7-3.2,2.2h6.4Z"/>
    <path class="st0" d="M214.3,94.4c1.7,0,3.2.6,4.4,1.8,1.2,1.2,1.8,2.6,1.8,4.3s-.6,3.1-1.8,4.3c-1.2,1.2-2.7,1.8-4.4,1.8s-3.1-.6-4.3-1.8c-1.2-1.2-1.8-2.6-1.8-4.3s.6-3.2,1.8-4.3c1.2-1.2,2.6-1.8,4.3-1.8ZM214.3,103.9c.9,0,1.7-.3,2.4-1,.7-.7,1-1.4,1-2.4s-.3-1.7-1-2.4c-.6-.6-1.4-1-2.4-1s-1.7.3-2.4,1-1,1.5-1,2.4.3,1.7,1,2.4c.7.7,1.5,1,2.4,1Z"/>
    <path class="st0" d="M227.3,93.7c-.5,0-.9.2-1.3.5-.4.4-.6.8-.6,1.3v.7h2.3v2.8h-2.3v7.7h-2.8v-7.7h-.9v-2.8h.9v-.8c0-1.2.4-2.3,1.3-3.2s2-1.3,3.2-1.3h1.3v2.8h-1.2Z"/>
    <path class="st0" d="M238.8,91v4.8c.5-.5,1.1-.8,1.8-1.1.7-.3,1.5-.4,2.4-.3,1.3.1,2.3.6,3.1,1.4.8.8,1.1,2,1.1,3.6v7.3h-2.8v-7.5c0-.4-.1-.8-.3-1.2-.2-.4-.5-.7-.9-1-.4-.3-1-.4-1.6-.4s-1.3.1-1.7.4c-.4.3-.7.6-.9,1-.2.4-.3.8-.3,1.2v7.5h-2.8v-15.8h2.8Z"/>
    <path class="st0" d="M255,94.4c1.7,0,3.2.6,4.4,1.8,1.2,1.2,1.8,2.6,1.8,4.3s-.6,3.1-1.8,4.3c-1.2,1.2-2.7,1.8-4.4,1.8s-3.1-.6-4.3-1.8c-1.2-1.2-1.8-2.6-1.8-4.3s.6-3.2,1.8-4.3c1.2-1.2,2.6-1.8,4.3-1.8ZM255,103.9c.9,0,1.7-.3,2.4-1,.7-.7,1-1.4,1-2.4s-.3-1.7-1-2.4c-.6-.6-1.4-1-2.4-1s-1.7.3-2.4,1-1,1.5-1,2.4.3,1.7,1,2.4c.7.7,1.5,1,2.4,1Z"/>
    <path class="st0" d="M266.1,97.1c-.4.1-.6.4-.7.8,0,.4.2.7.5.9l3.1,1.1c.7.3,1.2.7,1.6,1.3.4.6.6,1.3.6,2h0c0,1-.3,1.8-1,2.5s-1.5,1.1-2.5,1.1h-5.1v-2.8h4.6c0,0,.1,0,.3,0,.4-.1.6-.4.7-.8,0-.4-.2-.7-.5-.9l-3-1.1c-.7-.3-1.2-.7-1.6-1.3-.4-.6-.6-1.3-.6-2h0c0-1,.4-1.8,1.1-2.5s1.5-1,2.5-1h5.1v2.8h-4.6c-.1,0-.2,0-.3,0Z"/>
    <path class="st0" d="M279.6,94.5c1.6,0,2.9.6,4,1.8,1.1,1.2,1.6,2.6,1.6,4.3s-.5,3.2-1.6,4.3c-1.1,1.2-2.4,1.8-4,1.8s-2.8-.6-3.9-1.7v6.5h-2.8v-17.2h2.8v1.8c1.1-1.1,2.4-1.7,3.9-1.7ZM279,103.9c.9,0,1.7-.3,2.3-1s1-1.4,1-2.4-.3-1.7-1-2.4c-.6-.6-1.4-1-2.3-1s-1.7.3-2.3,1c-.7.7-1,1.5-1,2.4s.3,1.7,1,2.4c.7.7,1.4,1,2.3,1Z"/>
    <path class="st0" d="M288.3,93.3c-.5,0-.8-.2-1.2-.5-.3-.3-.5-.7-.5-1.1s.2-.8.5-1.1c.3-.3.7-.5,1.2-.5s.9.2,1.2.5c.3.3.5.7.5,1.1s-.2.8-.5,1.1c-.3.3-.7.5-1.2.5ZM287,94.3h2.8v12.4h-2.8v-12.4Z"/>
    <path class="st0" d="M297.4,97.1h-2.3v5c0,.5.2.9.6,1.2.3.3.8.5,1.3.5h.5v2.9h-.6c-1.2,0-2.3-.4-3.2-1.3s-1.3-2-1.3-3.2v-5.1h-.9v-2.8h.9v-3.4h2.8v3.4h2.3v2.8Z"/>
    <path class="st0" d="M310.7,94.3v12.4h-2.8v-1.7c-1.1,1.1-2.4,1.7-3.9,1.7s-2.9-.6-4-1.8c-1.1-1.2-1.7-2.6-1.7-4.3s.5-3.1,1.6-4.3c1.1-1.2,2.4-1.8,4-1.8,1.5,0,2.8.6,3.9,1.7v-1.8h2.8ZM304.6,103.9c.9,0,1.7-.3,2.3-1s1-1.4,1-2.4-.3-1.7-1-2.4c-.6-.6-1.4-1-2.3-1s-1.7.3-2.3,1c-.6.6-1,1.4-1,2.4s.3,1.7,1,2.4c.7.7,1.4,1,2.3,1Z"/>
    <path class="st0" d="M315.8,91v15.8h-2.8v-15.8h2.8Z"/>
    <path class="st0" d="M319.4,93.3c-.5,0-.8-.2-1.2-.5-.3-.3-.5-.7-.5-1.1s.2-.8.5-1.1c.3-.3.7-.5,1.2-.5s.9.2,1.2.5c.3.3.5.7.5,1.1s-.2.8-.5,1.1c-.3.3-.7.5-1.2.5ZM318.1,94.3h2.8v12.4h-2.8v-12.4Z"/>
    <path class="st0" d="M328.5,97.1h-2.3v5c0,.5.2.9.6,1.2.3.3.8.5,1.3.5h.5v2.9h-.6c-1.2,0-2.3-.4-3.2-1.3s-1.3-2-1.3-3.2v-5.1h-.9v-2.8h.9v-3.4h2.8v3.4h2.3v2.8Z"/>
    <path class="st0" d="M341.9,94.3l-6.6,17.2h-3l1.9-4.8-4.8-12.4h3l3.3,8.5,3.3-8.5h3Z"/>
  </g>
  <g>
    <path class="st0" d="M83,45.3v-19.7h4.2v19.7h-4.2ZM98.3,45.3v-8.2h-8.7v-3.6h8.7v-7.9h4.2v19.7h-4.2Z"/>
    <path class="st0" d="M114.8,45.3c-5.6,0-9.7-4.3-9.7-10s4.1-9.6,9.7-9.6h4.9c5.8,0,9.8,3.9,9.8,9.6s-4.1,10-9.8,10h-4.9ZM119.7,41.1c3.3,0,5.6-2.4,5.6-5.6s-2.3-5.6-5.6-5.6h-4.9c-3.2,0-5.5,2.4-5.5,5.6s2.3,5.6,5.5,5.6h4.9Z"/>
    <path class="st0" d="M149.5,45.3l-4.8-5.4h-6.1v-3.6h7.6c2.1,0,3.2-1.2,3.2-3.3s-1.2-3.2-3.2-3.2h-10.1v15.4h-4.2v-19.6h14.3c4.6,0,7.3,2.8,7.3,7.3s-1.5,5.5-4,6.4l5.9,5.9h-6Z"/>
    <path class="st0" d="M157,45.3v-19.6h17.8v4.2h-13.6v11.2h13.7v4.2h-17.9ZM163.7,36.9v-3.3h10.4v3.3h-10.4Z"/>
    <path class="st0" d="M186.7,45.3c-5.6,0-9.7-4.3-9.7-10s4.1-9.6,9.7-9.6h10.8v4.2h-10.8c-3.2,0-5.5,2.4-5.5,5.6s2.3,5.6,5.5,5.6h10.8v4.2h-10.8Z"/>
    <path class="st0" d="M200,45.3v-19.6h16.9v4.2h-12.8v15.4h-4.2ZM206.7,37.5v-3.6h9.5v3.6h-9.5Z"/>
    <path class="st0" d="M219.1,45.3v-19.6h17.8v4.2h-13.6v11.2h13.7v4.2h-17.9ZM225.7,36.9v-3.3h10.4v3.3h-10.4Z"/>
    <path class="st0" d="M258.7,45.3l-7.4-7.5-7.3,7.5h-5.5l10.3-10.2-9.5-9.4h5.8l6.6,6.8,6.6-6.8h5.5l-9.5,9.4,10.3,10.2h-5.9Z"/>
    <path class="st0" d="M108.7,55.9h4.3l6.8,11.7,6.8-11.7h4l-9.3,15.5c-.4.7-.9,1.1-1.7,1.1s-1.3-.4-1.7-1.1l-9.3-15.5Z"/>
    <path class="st0" d="M132.4,72.3v-16.4h3.5v16.4h-3.5Z"/>
    <path class="st0" d="M138.7,72.3v-16.4h14.9v3.5h-11.4v9.3h11.4v3.5h-14.9ZM144.2,65.4v-2.8h8.7v2.8h-8.7Z"/>
    <path class="st0" d="M160.8,72.3v-12.9h-6v-3.5h15.5v3.5h-6v12.9h-3.5Z"/>
    <path class="st0" d="M175.3,61.4v10.9h-3.3v-14.5c0-1.3.7-2.1,1.8-2.1s.9.2,1.4.7l10.7,10.3v-10.9h3.4v14.7c0,1.3-.7,2.1-1.8,2.1s-1-.2-1.4-.7l-10.7-10.4Z"/>
    <path class="st0" d="M208.4,72.3l-2.3-3.9h-6.9l1.6-2.7h3.7l-3-5-6.9,11.6h-4l9.3-15.5c.4-.7.9-1.1,1.7-1.1s1.3.5,1.7,1.1l9.3,15.5h-4.2Z"/>
    <path class="st0" d="M234.3,72.3l-2.7-10.3-4.4,9.3c-.4.8-.9,1.3-1.8,1.3s-1.4-.5-1.8-1.3l-4.3-9.3-2.7,10.3h-3.4l4-15.2c.2-.9.8-1.4,1.7-1.4s1.4.4,1.8,1.2l4.9,10.4,4.9-10.4c.3-.7.9-1.2,1.7-1.2s1.4.5,1.7,1.4l4,15.2h-3.5Z"/>
  </g>
</svg>